<?xml version="1.0" ?><svg id="Слой_1" style="enable-background:new 0 0 1600 1600;" version="1.1" viewBox="0 0 1600 1600" xml:space="preserve" xmlns="http://www.w3.org/2000/svg" xmlns:xlink="http://www.w3.org/1999/xlink"><style type="text/css">
	.st0{fill:none;}
</style><g id="XMLID_1_"><g><path d="M405.2,403.3v552c0,65.7,53.2,118.9,118.8,118.9h552c65.6,0,118.8-53.2,118.8-118.9v-552c0-65.6-53.2-118.8-118.8-118.8    H524C458.4,284.4,405.2,337.7,405.2,403.3z M1431.8,680.7v522.2c0,22.3-18.1,40.3-40.4,40.3h-3.1c-22.2,0-40.2-17.9-40.3-40.1    l-0.7-205.6c-13.3,23-28,45.1-44,66.1l-0.4,167.2c0,22.2-18.1,40.2-40.3,40.2h-0.2c-22.4,0-40.4-18.2-40.3-40.5l0.3-79    c-14.2,12.8-29,24.9-44.3,36.4l-0.4,301.7c-0.1,22.2-18.1,40.2-40.3,40.2h-0.1c-22.3,0-40.4-18.1-40.4-40.3v-250    c-14.3,7.6-28.9,14.7-43.7,21.2v60.6c0,22.3-18.1,40.4-40.4,40.4h-4.7c-22.3,0-40.3-18.1-40.3-40.4V1291    c-14,3.8-28.2,7.2-42.6,10.1v99.5c0,22.3-18.1,40.3-40.4,40.3h-2.3c-22.3,0-40.3-18.1-40.3-40.3v-88.4c-13.9,0.9-28,1.4-42.1,1.4    s-28.2-0.5-42.1-1.4v197.6c0,22.3-18.1,40.3-40.3,40.3h-2.3c-22.3,0-40.4-18-40.4-40.3v-208.6c-14.4-2.9-28.6-6.3-42.6-10.1v68.5    c0,22.3-18,40.3-40.3,40.3h-4.7c-22.3,0-40.4-18.1-40.4-40.3v-98.8c-14.9-6.5-29.5-13.6-43.7-21.2v201.4    c0,22.3-18.1,40.4-40.4,40.4c-11.1,0-21.2-4.5-28.5-11.8c-7.3-7.3-11.8-17.4-11.8-28.5v-252.6c-15.3-11.4-30.1-23.5-44.3-36.3    l0,79.7c0,22.3-18.1,40.4-40.3,40.4h-0.3c-22.3,0-40.4-18.1-40.4-40.4v-167.4c-7.4-9.7-14.6-19.7-21.4-29.9    c-8.4-12.5-16.4-25.4-24-38.5V1104c0,22.3-18.1,40.4-40.3,40.4h-2.8c-22.3,0-40.4-18.1-40.4-40.4V681.8    C168.2,332.8,451.1,50,800,50S1431.8,331.8,1431.8,680.7z"/><path d="M1010.1,420.2c0-29.9,24.2-54,54-54c29.9,0,54,24.2,54,54c0,29.9-24.2,54-54,54C1034.3,474.3,1010.1,450.1,1010.1,420.2z"/><path d="M800,546.8c-73.2,0-132.5,59.3-132.5,132.5c0,73.2,59.3,132.5,132.5,132.5s132.5-59.3,132.5-132.5    C932.5,606.1,873.2,546.8,800,546.8z M574.8,679.3c0-124.3,100.8-225.2,225.2-225.2s225.2,100.8,225.2,225.2    c0,124.4-100.8,225.2-225.2,225.2S574.8,803.6,574.8,679.3z"/></g></g></svg>