<?xml version="1.0" ?><svg id="Слой_1" style="enable-background:new 0 0 1600 1600;" version="1.1" viewBox="0 0 1600 1600" xml:space="preserve" xmlns="http://www.w3.org/2000/svg" xmlns:xlink="http://www.w3.org/1999/xlink"><style type="text/css">
	.st0{fill:none;}
</style><g id="XMLID_10_"><g><path d="M462.8,604.6c-3.3,4.7-5.3,10.5-5.3,16.8c0,6.9,2.4,13.3,6.4,18.4c4.1,5.1,9.8,8.8,16.5,10.4l77.1,17.8    c0,66.7-14.7,131.7-42.2,190.8C487.8,917.9,447.6,971,396.6,1014c0.6,4.7,2.7,9,5.8,12.3c3.1,3.3,7.3,5.5,12,6.3l71.4-3.7    c23.5-1.2,44.9,13.8,51.6,36.4l7.4,25l1.8-0.9c49-25.3,108.7-15.9,147.5,23.3l2.9,2.9c23.6,24,55.9,37.4,89.6,37.4h24.2    c32.2,0,63.2-12.3,86.6-34.5l9.6-9.1c40.2-38,100.5-45.4,148.6-18.1l7.1-23.2c7.4-24.4,30.3-40.8,55.8-40.1l67.2,1.9    c9.3-1.9,16.5-9.5,17.7-18.9c0,0,0,0,0,0v-0.3c0,0.1,0,0.1,0,0.2c-103.3-83.8-162.9-210-161.9-343l77.1-17.8    c13.4-3.1,22.9-15,22.9-28.8c0-3.2-0.5-6.2-1.4-9c-0.9-2.8-2.2-5.5-3.9-7.8c-8.1-11.7-23.8-15.3-36.6-9.2    c-8.2,3.9-16.8,6.9-25.6,8.9c-8.8,2-17.8,3-26.9,3h-5.4l9.5-147.3c0-140.6-114-254.7-254.7-254.7c-70.3,0-134,28.5-180,74.6    c-46.1,46.1-74.6,109.8-74.6,180.1l15.8,147.3H552c-18.2,0-36.2-4.1-52.6-12c-4.2-2-8.6-3-13-3    C477.3,592.5,468.3,596.7,462.8,604.6z M1431.8,680.7v522.2c0,22.3-18.1,40.3-40.4,40.3h-3.1c-22.2,0-40.2-17.9-40.3-40.1    l-0.7-205.6c-13.3,23-28,45.1-44,66.1l-0.4,167.2c0,22.2-18.1,40.2-40.3,40.2h-0.2c-22.4,0-40.4-18.2-40.3-40.5l0.3-79    c-14.2,12.8-29,24.9-44.3,36.4l-0.4,301.7c-0.1,22.2-18.1,40.2-40.3,40.2h-0.1c-22.3,0-40.4-18.1-40.4-40.3v-250    c-14.3,7.6-28.9,14.7-43.7,21.2v60.6c0,22.3-18.1,40.4-40.4,40.4h-4.7c-22.3,0-40.3-18.1-40.3-40.4V1291    c-14,3.8-28.2,7.2-42.6,10.1v99.5c0,22.3-18.1,40.3-40.4,40.3h-2.3c-22.3,0-40.3-18.1-40.3-40.3v-88.4c-13.9,0.9-28,1.4-42.1,1.4    s-28.2-0.5-42.1-1.4v197.6c0,22.3-18.1,40.3-40.3,40.3h-2.3c-22.3,0-40.4-18-40.4-40.3v-208.6c-14.4-2.9-28.6-6.3-42.6-10.1v68.5    c0,22.3-18,40.3-40.3,40.3h-4.7c-22.3,0-40.4-18.1-40.4-40.3v-98.8c-14.9-6.5-29.5-13.6-43.7-21.2v201.4    c0,22.3-18.1,40.4-40.4,40.4c-11.1,0-21.2-4.5-28.5-11.8c-7.3-7.3-11.8-17.4-11.8-28.5v-252.6c-15.3-11.4-30.1-23.5-44.3-36.3    l0,79.7c0,22.3-18.1,40.4-40.3,40.4h-0.3c-22.3,0-40.4-18.1-40.4-40.4v-167.4c-7.4-9.7-14.6-19.7-21.4-29.9    c-8.4-12.5-16.4-25.4-24-38.5V1104c0,22.3-18.1,40.4-40.3,40.4h-2.8c-22.3,0-40.4-18.1-40.4-40.4V681.8    C168.3,332.8,451.1,50,800,50S1431.8,331.8,1431.8,680.7z"/></g></g></svg>