<?xml version="1.0" ?><svg id="Слой_1" style="enable-background:new 0 0 1600 1600;" version="1.1" viewBox="0 0 1600 1600" xml:space="preserve" xmlns="http://www.w3.org/2000/svg" xmlns:xlink="http://www.w3.org/1999/xlink"><style type="text/css">
	.st0{fill:none;}
</style><g id="XMLID_2_"><g><path d="M451.1,589.1l-87-24.5c7,85.5,63.4,159,144.2,187.9l10.8,3.9l-85.9,4.5c27.5,73.7,94.6,125.3,172.9,133l7.7,0.8    C541,954.2,448.2,984,354.2,977.8l-28-1.9c66.1,50.6,145.9,80,229.1,84.4l6.2,0.3l25.3,1c8.1,0.3,16.2,0.5,24.2,0.5    c152.5,0,302.7-55,410.1-163.7c4.4-4.5,8.7-9.2,13.2-14.8c43.3-57.5,77.4-120.8,101.4-187.8c24-67,38-137.5,41.2-209.4l41.2-35    c12.7-10.8,24-23,33.8-36.4l22-30l-42.7,16.2c-5.8,2.1-11.7,3.7-17.8,4.8l-49.7,8.9l17.8-13.8c27.4-21.1,48.9-49,62.3-80.9    l4.9-11.6l-11.3,5.6c-18,8.9-36.5,16.7-55.3,23.5c-18.9,6.8-38.1,12.5-57.6,17.2c0,0-10-7.5-23.7-17.7    c-47-35.3-106.9-48.6-164.4-36.5l-1.4,0.3c-15.7,3.3-30.5,9.5-43.8,18.4l-11.2,7.5c-60.8,40.8-94.1,111.9-86.4,184.7l2.3,21.7    l-34.9-6.4C623.3,501.6,496.5,435,397.5,336l-5.5-5.5l-0.3,0.9c-8,25.7-12,52-12,78.2C379.7,475.3,404.6,539.8,451.1,589.1z     M1431.8,681.8V1204c0,22.3-18.1,40.3-40.4,40.3h-3.1c-22.2,0-40.2-17.9-40.3-40.1l-0.7-205.6c-13.3,23-28,45.1-44,66.1    l-0.4,167.2c0,22.2-18.1,40.2-40.3,40.2h-0.2c-22.4,0-40.4-18.2-40.3-40.5l0.3-79c-14.2,12.8-29,24.9-44.3,36.4l-0.4,301.7    c-0.1,22.2-18.1,40.2-40.3,40.2h-0.1c-22.3,0-40.4-18.1-40.4-40.3v-250c-14.3,7.6-28.9,14.7-43.7,21.2v60.6    c0,22.3-18.1,40.4-40.4,40.4h-4.7c-22.3,0-40.3-18.1-40.3-40.4v-30.3c-14,3.8-28.2,7.2-42.6,10.1v99.5c0,22.3-18.1,40.3-40.4,40.3    h-2.3c-22.3,0-40.3-18.1-40.3-40.3v-88.4c-13.9,0.9-28,1.4-42.1,1.4s-28.2-0.5-42.1-1.4v197.6c0,22.3-18.1,40.3-40.3,40.3h-2.3    c-22.3,0-40.4-18-40.4-40.3v-208.6c-14.4-2.9-28.6-6.3-42.6-10.1v68.5c0,22.3-18,40.3-40.3,40.3h-4.7c-22.3,0-40.4-18.1-40.4-40.3    v-98.8c-14.9-6.5-29.5-13.6-43.7-21.2V1442c0,22.3-18.1,40.4-40.4,40.4c-11.1,0-21.2-4.5-28.5-11.8c-7.3-7.3-11.8-17.4-11.8-28.5    v-252.6c-15.3-11.4-30.1-23.5-44.3-36.3l0,79.7c0,22.3-18.1,40.4-40.3,40.4h-0.3c-22.3,0-40.4-18.1-40.4-40.4v-167.4    c-7.4-9.7-14.6-19.7-21.4-29.9c-8.4-12.5-16.4-25.4-24-38.5v108.1c0,22.3-18.1,40.4-40.3,40.4h-2.8c-22.3,0-40.4-18.1-40.4-40.4    V682.8c0-348.9,282.9-631.8,631.8-631.8S1431.8,332.8,1431.8,681.8z"/></g></g></svg>